<svg xmlns="http://www.w3.org/2000/svg" width="86.975" height="78.73" viewBox="0 0 86.975 78.73">
  <g id="Group_1275" data-name="Group 1275" transform="translate(-741.823 -342.499)">
    <g id="Group_1275-2" data-name="Group 1275" transform="translate(741.823 361.717)">
      <path id="Path_4586" data-name="Path 4586" d="M741.925,473.953c4.5,3.285,10.471,4.828,18.06,4.828,6.187,0,10.607-.988,13.206-3.016a9.606,9.606,0,0,0,2.336-2.638,14.034,14.034,0,0,0,1.527-7.377,8.733,8.733,0,0,0-6.046-8.545,39.065,39.065,0,0,0-9.358-2.132,46.692,46.692,0,0,1-5.875-1.092,8.562,8.562,0,0,1-1.975-.78,3.174,3.174,0,0,1-1.456-2.7c0-2.911,1.663-4,7.486-4,.405,0,8.623-.024,8.623-.024a7.306,7.306,0,0,0,7-5.055,17.8,17.8,0,0,0,.455-2.018.311.311,0,0,0-.308-.366l-17.409.012c-9.85.341-14.319,3.746-14.319,11.662,0,4.107,1.143,6.758,4,8.474a20.458,20.458,0,0,0,4.783,1.923,60.737,60.737,0,0,0,6.863,1.3,31.2,31.2,0,0,1,7.123,1.612,3.028,3.028,0,0,1,2.028,3.016,3.888,3.888,0,0,1-1.768,3.639c-1.2.676-3.587,1.04-7.174,1.04a27.247,27.247,0,0,1-8.641-1.52c-4.744-1.449-6.838-.159-8.326,1.984l-.9,1.447a.251.251,0,0,0,.065.333Z" transform="translate(-741.823 -439.007)" fill="#fff"/>
      <path id="Path_4587" data-name="Path 4587" d="M950.765,471.914c.176.434.634,1.534,1.185,2.6,2.1,4.055,4.543,4.227,9.921,4.227a.086.086,0,0,0,.078-.124l-15.42-39.369a.341.341,0,0,0-.319-.218h-7a.311.311,0,0,0-.29.2l-15.469,39.389a.085.085,0,0,0,.079.124c5.546,0,7.821-.172,9.921-4.227.55-1.062,1.009-2.162,1.185-2.6a.308.308,0,0,1,.288-.192h15.551A.308.308,0,0,1,950.765,471.914Zm-3.043-7.266h-10a.167.167,0,0,1-.156-.228l4.995-12.7a.169.169,0,0,1,.314,0l5,12.705a.165.165,0,0,1-.153.225Z" transform="translate(-887.245 -439.004)" fill="#fff"/>
      <path id="Path_4588" data-name="Path 4588" d="M1141.59,438.917a3.285,3.285,0,0,0-3.475,3.564s-.075,34.01-.074,36.028a.12.12,0,0,0,.119.119,9.52,9.52,0,0,0,2.739-.244,6.132,6.132,0,0,0,3.868-2.631,8.414,8.414,0,0,0,1.21-4.528V439.037a.12.12,0,0,0-.12-.12Z" transform="translate(-1059.069 -438.917)" fill="#fff"/>
    </g>
    <path id="Path_4589" data-name="Path 4589" d="M1131.92,376.033a1.335,1.335,0,1,0-.346-1.856,1.335,1.335,0,0,0,.346,1.856Z" transform="translate(-311.879 -24.899)" fill="navy"/>
    <g id="Group_1276" data-name="Group 1276" transform="translate(807.309 342.499)">
      <path id="Path_4590" data-name="Path 4590" d="M1131.911,376.032a1.335,1.335,0,1,0-.345-1.856A1.335,1.335,0,0,0,1131.911,376.032Z" transform="translate(-1119.182 -367.397)" fill="#fff"/>
      <path id="Path_4591" data-name="Path 4591" d="M1083.638,354.213c1.456,2.26,1.354,3.447.985,4.414q.168-.2.325-.419a5.224,5.224,0,0,0,.688-5.252,43.359,43.359,0,0,0-3.539-5.626c-.292-.445-.552-.848-.769-1.182q-.216-.326-.407-.63l-.211-.328.039.051a19.067,19.067,0,0,1-1.441-2.742c-2.151,2.849.984,7.008.984,7.008Z" transform="translate(-1076.925 -342.499)" fill="#ef7e19"/>
      <path id="Path_4592" data-name="Path 4592" d="M1075.178,385.919a4.876,4.876,0,0,1,1.1,2.522,1.741,1.741,0,0,1-.9,1.414,13.377,13.377,0,0,0,2.146-1.135,3.521,3.521,0,0,0,.309-3.852c-.4-.761-.829-1.341-1.883-2.931a33.168,33.168,0,0,1-2.618-4.321s-2.32,2.5.04,5.93C1073.369,383.542,1074.515,384.989,1075.178,385.919Z" transform="translate(-1071.924 -370.614)" fill="#098036"/>
      <path id="Path_4593" data-name="Path 4593" d="M1084.043,363.278c-.077.005-.1,0-.306,0-1.007.017-4.453-.5-9.58-7.281,0,0,.585.914,1.386,2.14a43.272,43.272,0,0,1,3.539,5.626,5.224,5.224,0,0,1-.688,5.252c-1.732,2.378-4.318,3.723-8.026,4.386a25.773,25.773,0,0,0,8.821-2.7,28.422,28.422,0,0,0,9.854-8.328,29.087,29.087,0,0,0,2.813-4.779S1088.183,362.972,1084.043,363.278Z" transform="translate(-1070.369 -353.306)" fill="#fff"/>
    </g>
    <g id="Group_1277" data-name="Group 1277" transform="translate(741.83 417.232)">
      <path id="Path_4594" data-name="Path 4594" d="M743.686,719.1c-.668-.171-.834-.254-.834-.508v-.011c0-.188.172-.337.5-.337a1.811,1.811,0,0,1,1,.381l.441-.64a2.237,2.237,0,0,0-1.435-.491,1.209,1.209,0,0,0-1.353,1.164v.011c0,.768.5.983,1.281,1.182.646.165.78.275.78.491v.011c0,.227-.21.364-.558.364a1.772,1.772,0,0,1-1.154-.469l-.5.6a2.457,2.457,0,0,0,1.639.618c.834,0,1.419-.431,1.419-1.2v-.011C744.911,719.588,744.47,719.307,743.686,719.1Z" transform="translate(-741.854 -717.484)" fill="#fff"/>
      <path id="Path_4595" data-name="Path 4595" d="M762.491,717.771h-1.579v3.862h.85v-1.159h.646a1.38,1.38,0,0,0,1.56-1.358V719.1a1.323,1.323,0,0,0-1.478-1.334Zm.618,1.365a.6.6,0,0,1-.673.585h-.673V718.54h.655c.425,0,.69.2.69.585Z" transform="translate(-757.114 -717.703)" fill="#fff"/>
      <path id="Path_4596" data-name="Path 4596" d="M780.622,717.447a2,2,0,0,0-2.059,2v.011a2.054,2.054,0,0,0,4.107-.011v-.011a1.98,1.98,0,0,0-2.048-1.989Zm1.159,2.01a1.156,1.156,0,0,1-1.159,1.2,1.174,1.174,0,0,1-1.17-1.214v-.011a1.156,1.156,0,0,1,1.16-1.2,1.174,1.174,0,0,1,1.17,1.215Z" transform="translate(-771.247 -717.446)" fill="#fff"/>
      <path id="Path_4597" data-name="Path 4597" d="M806.2,719.067v-.009a1.214,1.214,0,0,0-.331-.884,1.539,1.539,0,0,0-1.126-.39h-1.767v3.858h.85v-1.236h.668l.829,1.236h.994l-.944-1.38A1.2,1.2,0,0,0,806.2,719.067Zm-.861.044c0,.326-.237.546-.651.546h-.861v-1.109h.845c.414,0,.668.188.668.552Z" transform="translate(-790.791 -717.713)" fill="#fff"/>
      <path id="Path_4598" data-name="Path 4598" d="M821.619,718.564h1.176v3.078h.85v-3.081h1.176v-.782h-3.2Z" transform="translate(-805.721 -717.713)" fill="#fff"/>
      <path id="Path_4599" data-name="Path 4599" d="M841.046,719.1c-.668-.171-.834-.254-.834-.508v-.011c0-.188.171-.337.5-.337a1.812,1.812,0,0,1,1,.381l.441-.64a2.236,2.236,0,0,0-1.436-.495,1.209,1.209,0,0,0-1.353,1.165v.011c0,.768.5.983,1.281,1.182.646.165.78.276.78.491v.011c0,.227-.21.364-.558.364a1.773,1.773,0,0,1-1.154-.469l-.5.6a2.457,2.457,0,0,0,1.639.618c.834,0,1.419-.431,1.419-1.2v-.011C842.271,719.585,841.829,719.3,841.046,719.1Z" transform="translate(-819.808 -717.481)" fill="#fff"/>
      <path id="Path_4600" data-name="Path 4600" d="M866.579,717.642l-1.658,3.892h.867l.353-.867h1.634l.354.867h.889l-1.658-3.892Zm-.132,2.274.513-1.253.514,1.253Z" transform="translate(-840.393 -717.602)" fill="#fff"/>
      <path id="Path_4601" data-name="Path 4601" d="M890,719.993c0,.613-.315.927-.833.927s-.833-.326-.833-.955V717.78h-.851v2.208a1.533,1.533,0,0,0,1.673,1.717,1.555,1.555,0,0,0,1.7-1.744V717.78H890Z" transform="translate(-858.453 -717.713)" fill="#fff"/>
      <path id="Path_4602" data-name="Path 4602" d="M907.344,718.564h1.176v3.078h.851v-3.081h1.176v-.782h-3.2Z" transform="translate(-874.359 -717.713)" fill="#fff"/>
      <path id="Path_4603" data-name="Path 4603" d="M929.1,719.309H927.53V717.78h-.85v3.862h.85v-1.551H929.1v1.551h.85V717.78h-.85Z" transform="translate(-889.842 -717.713)" fill="#fff"/>
      <path id="Path_4604" data-name="Path 4604" d="M948.936,717.447a2,2,0,0,0-2.059,2v.011a2.054,2.054,0,0,0,4.107-.011v-.011a1.98,1.98,0,0,0-2.048-1.989Zm1.159,2.01a1.156,1.156,0,0,1-1.159,1.2,1.174,1.174,0,0,1-1.17-1.214v-.011a1.156,1.156,0,0,1,1.16-1.2,1.174,1.174,0,0,1,1.17,1.215Z" transform="translate(-906.014 -717.446)" fill="#fff"/>
      <path id="Path_4605" data-name="Path 4605" d="M974.513,719.067v-.009a1.216,1.216,0,0,0-.331-.884,1.541,1.541,0,0,0-1.126-.39H971.29v3.858h.85v-1.236h.668l.829,1.236h.994l-.944-1.38A1.2,1.2,0,0,0,974.513,719.067Zm-.861.044c0,.326-.237.546-.651.546h-.861v-1.109h.845c.414,0,.668.188.668.552Z" transform="translate(-925.56 -717.713)" fill="#fff"/>
      <rect id="Rectangle_318" data-name="Rectangle 318" width="0.85" height="3.865" transform="translate(49.761 0.067)" fill="#fff"/>
      <path id="Path_4606" data-name="Path 4606" d="M999.246,718.564h1.176v3.078h.85v-3.081h1.176v-.782h-3.2Z" transform="translate(-947.944 -717.713)" fill="#fff"/>
      <path id="Path_4607" data-name="Path 4607" d="M1018.507,719.329l-.922-1.551h-.994l1.485,2.341v1.521h.85V720.1l1.485-2.324h-.966Z" transform="translate(-961.832 -717.711)" fill="#fff"/>
      <path id="Path_4608" data-name="Path 4608" d="M1047.936,717.447a2,2,0,0,0-2.059,2v.011a2.055,2.055,0,0,0,4.107-.011v-.011a1.98,1.98,0,0,0-2.048-1.989Zm1.159,2.01a1.156,1.156,0,0,1-1.159,1.2,1.175,1.175,0,0,1-1.17-1.214v-.011a1.156,1.156,0,0,1,1.16-1.2,1.174,1.174,0,0,1,1.17,1.215Z" transform="translate(-985.28 -717.446)" fill="#fff"/>
      <path id="Path_4609" data-name="Path 4609" d="M1070.28,721.642h.85v-1.5h1.844v-.773h-1.844v-.823h2.092v-.77h-2.942Z" transform="translate(-1004.821 -717.713)" fill="#fff"/>
      <rect id="Rectangle_319" data-name="Rectangle 319" width="0.85" height="3.865" transform="translate(70.779 0.067)" fill="#fff"/>
      <path id="Path_4610" data-name="Path 4610" d="M1108.674,720.16l-1.811-2.379h-.784v3.862h.839v-2.457l1.871,2.457h.723V717.78h-.839Z" transform="translate(-1033.484 -717.713)" fill="#fff"/>
      <path id="Path_4611" data-name="Path 4611" d="M1129.476,717.776h-1.507v3.862h1.507a1.934,1.934,0,0,0,2.054-1.932v-.011a1.926,1.926,0,0,0-2.054-1.919Zm1.165,1.943a1.1,1.1,0,0,1-1.165,1.154h-.657v-2.329h.657a1.11,1.11,0,0,1,1.165,1.165Z" transform="translate(-1051.01 -717.708)" fill="#fff"/>
      <rect id="Rectangle_320" data-name="Rectangle 320" width="0.85" height="3.865" transform="translate(81.316 0.067)" fill="#fff"/>
      <path id="Path_4612" data-name="Path 4612" d="M1159.725,717.642h-.784l-1.658,3.892h.867l.353-.867h1.634l.353.867h.889Zm-.916,2.274.513-1.253.514,1.253Z" transform="translate(-1074.482 -717.602)" fill="#fff"/>
    </g>
    <g id="Group_1278" data-name="Group 1278" transform="translate(751.811 405.496)">
      <path id="Path_4613" data-name="Path 4613" d="M808.74,660.995h-.665a4.366,4.366,0,0,0-.212-.657,2.833,2.833,0,0,0-.361-.637,1.889,1.889,0,0,0-.541-.485,1.452,1.452,0,0,0-.761-.192,1.575,1.575,0,0,0-.545.088,1.245,1.245,0,0,0-.413.244,1.057,1.057,0,0,0-.264.373,1.2,1.2,0,0,0-.092.473,1.53,1.53,0,0,0,.112.581,2.2,2.2,0,0,0,.1.212H794.843v.673h.732v1.939h-1.229v-1.459a1.245,1.245,0,0,0-.317-.914,1.211,1.211,0,0,0-.9-.32,1.326,1.326,0,0,0-.477.084,1.168,1.168,0,0,0-.381.233,1.034,1.034,0,0,0-.248.349,1.078,1.078,0,0,0-.088.439,1.27,1.27,0,0,0,.064.412,1.4,1.4,0,0,0,.164.336,1.146,1.146,0,0,0,.228.253,1.219,1.219,0,0,0,.249.16l.439-.505a.822.822,0,0,1-.248-.237.633.633,0,0,1-.112-.381.469.469,0,0,1,.112-.345.4.4,0,0,1,.3-.112q.36,0,.36.488V663.6h-.056a.59.59,0,0,0-.38.14.491.491,0,0,0-.173.4.8.8,0,0,0,.08.357.905.905,0,0,0,.216.285,1.026,1.026,0,0,0,.313.188.993.993,0,0,0,.36.068.793.793,0,0,0,.329-.056.506.506,0,0,0,.168-.112v-.593h1.226v1.8h.866v-4.424h1.2v4.424h.866v-4.424h2.22a2,2,0,0,1,.216.4,1.476,1.476,0,0,1,.1.581.845.845,0,0,1-.176.581.568.568,0,0,1-.439.2.5.5,0,0,1-.409-.224l-.152-.192a.679.679,0,0,0-.4.112.356.356,0,0,0-.156.3.641.641,0,0,0,.052.24,1.689,1.689,0,0,0,.189.321l1.491,2.243.769-.465-1.258-1.651h.08a1.3,1.3,0,0,0,.477-.092,1.229,1.229,0,0,0,.417-.269,1.346,1.346,0,0,0,.293-.439,1.5,1.5,0,0,0,.112-.6,1.668,1.668,0,0,0-.112-.645,1.91,1.91,0,0,0-.216-.4h3.687v.986h-1.242a1.615,1.615,0,0,0-1.1.36,1.36,1.36,0,0,0-.413,1.082,2.85,2.85,0,0,0,.228,1.134,5.45,5.45,0,0,0,.549.989l.761-.336a5.588,5.588,0,0,1-.481-.882,2.161,2.161,0,0,1-.177-.849.824.824,0,0,1,.2-.577.811.811,0,0,1,.629-.216h1.05v2.731h.866V661.66h1.2v4.424h.866V661.66H810a1.435,1.435,0,0,1,.2.293.772.772,0,0,1,.084.357.573.573,0,0,1-.249.521,1.576,1.576,0,0,1-.785.176l-.193.008a2.32,2.32,0,0,0,.173.938,1.817,1.817,0,0,0,.452.641,1.783,1.783,0,0,0,.637.365,2.324,2.324,0,0,0,.725.116,1.968,1.968,0,0,0,.661-.092,1.388,1.388,0,0,0,.365-.18v1.282h.866v-4.424h.683v-.673H808.74Zm-1.907,0h-.888a1.716,1.716,0,0,1-.138-.288,1.267,1.267,0,0,1-.072-.433.558.558,0,0,1,.137-.4.5.5,0,0,1,.376-.14.626.626,0,0,1,.381.12,1.214,1.214,0,0,1,.288.3,2.112,2.112,0,0,1,.212.409q.088.225.152.433Zm4.336,1.427a1.028,1.028,0,0,0-.088-.433,1.327,1.327,0,0,0-.2-.32h1.194V664a.963.963,0,0,1-.369.26,1.491,1.491,0,0,1-.617.116,1.232,1.232,0,0,1-.8-.236.845.845,0,0,1-.333-.565,1.48,1.48,0,0,0,.869-.329,1.024,1.024,0,0,0,.339-.826Z" transform="translate(-791.933 -658.931)" fill="#fff"/>
      <path id="Path_4614" data-name="Path 4614" d="M917.753,660.635h-.74l-.478-.905a2.525,2.525,0,0,0-.689-.842,1.64,1.64,0,0,0-1.024-.313,2.117,2.117,0,0,0-.453.049,1.343,1.343,0,0,0-.365.128l.28.769a1.89,1.89,0,0,1,.276-.084,1.4,1.4,0,0,1,.316-.036,1.034,1.034,0,0,1,.645.192,2.332,2.332,0,0,1,.509.585l.3.457h-4.828v.673h1.483a1.47,1.47,0,0,1,.172.4,1.981,1.981,0,0,1,.068.533.85.85,0,0,1-.156.565.47.47,0,0,1-.365.18q-.169,0-.249-.224l-.1-.224a.536.536,0,0,0-.433.049.372.372,0,0,0-.176.336,1.062,1.062,0,0,0,.02.2q.02.1.036.168a3.029,3.029,0,0,0,.449,1.038,2.829,2.829,0,0,0,1.609,1.138,3.852,3.852,0,0,0,1.01.132,3.508,3.508,0,0,0,.927-.1,2.525,2.525,0,0,0,.565-.22v.449h.866v-4.424h4.76v.873a1.228,1.228,0,0,0-.432-.056,1.249,1.249,0,0,0-.509.1,1.046,1.046,0,0,0-.38.273,1.54,1.54,0,0,0-1.073-.393,1.728,1.728,0,0,0-.553.088,1.384,1.384,0,0,0-.473.269,1.291,1.291,0,0,0-.333.456,1.585,1.585,0,0,0-.124.654,2.041,2.041,0,0,0,.14.761,2.465,2.465,0,0,0,.369.637,2.9,2.9,0,0,0,.529.509,3.937,3.937,0,0,0,.629.385l.536-.641a4.855,4.855,0,0,1-.481-.276,2.142,2.142,0,0,1-.425-.36,1.864,1.864,0,0,1-.3-.449,1.267,1.267,0,0,1-.116-.549.751.751,0,0,1,.216-.6.791.791,0,0,1,.536-.188.867.867,0,0,1,.6.209,2.282,2.282,0,0,0-.108.449,4.168,4.168,0,0,0-.044.641h.858a2.465,2.465,0,0,1,.184-.99.526.526,0,0,1,.5-.309.778.778,0,0,1,.146.012.891.891,0,0,1,.108.028v2.885h.866v-4.424h.683v-.674Zm-1.386,2.926a.706.706,0,0,1-.433.12.746.746,0,0,1-.445-.14.555.555,0,0,1-.2-.485.564.564,0,0,1,.188-.461.686.686,0,0,1,.453-.156.863.863,0,0,1,.433.1Zm0-1.6a.78.78,0,0,0-.248-.084,1.756,1.756,0,0,0-.321-.028,1.518,1.518,0,0,0-.5.08,1.187,1.187,0,0,0-.4.233,1.051,1.051,0,0,0-.269.372,1.267,1.267,0,0,0-.1.509,1.232,1.232,0,0,0,.108.533,1.115,1.115,0,0,0,.288.381,1.286,1.286,0,0,0,.409.233,1.429,1.429,0,0,0,.477.08,1.193,1.193,0,0,0,.341-.04.954.954,0,0,0,.213-.088v.417a1.54,1.54,0,0,1-.557.249,3.313,3.313,0,0,1-.9.112,2.943,2.943,0,0,1-.709-.084,2.469,2.469,0,0,1-.625-.244,1.949,1.949,0,0,1-.5-.4,1.756,1.756,0,0,1-.333-.549.5.5,0,0,0,.12.016,1.3,1.3,0,0,0,.509-.1,1.105,1.105,0,0,0,.393-.277,1.244,1.244,0,0,0,.252-.433,1.681,1.681,0,0,0,.088-.557,1.741,1.741,0,0,0-.088-.569,1.921,1.921,0,0,0-.192-.417h2.541Z" transform="translate(-887.67 -658.574)" fill="#fff"/>
      <path id="Path_4615" data-name="Path 4615" d="M996.764,661.655a.249.249,0,0,1-.116-.082,5.048,5.048,0,0,0-1.5-1.212,2.522,2.522,0,0,0-.258-.119,4.352,4.352,0,0,0-1.122-.327,3.515,3.515,0,0,0-1.961.163,1.719,1.719,0,0,0-.4.237,1.06,1.06,0,0,0-.406,1.148c.014.057.034.111.06.192H984.34v.009h-.011v.671h.011v.006h.379v.133c0,.462,0,.927,0,1.387a1.219,1.219,0,0,0,.872,1.268c.081.027.166.04.272.066l-1.346,1.085.721.609,1.749-1.84.013,0v1.707h.878v-.039h0v-4.38h1.178v4.419h.878v-4.419h1.18v4.419h.878v-4.419h.665v-.565a.227.227,0,0,0,0-.038v-.084h-.715c-.039-.013-.082-.045-.087-.072a.672.672,0,0,1,.213-.711,1.234,1.234,0,0,1,.359-.2,2.66,2.66,0,0,1,1.448-.024,4.013,4.013,0,0,1,1.265.531c.074.049.146.1.218.16h.016a4.764,4.764,0,0,1,.631.554.255.255,0,0,1,.076.2c0,.874-.009,1.749,0,2.623a.379.379,0,0,1-.226.39c-.02.011-.04.022-.061.032a2.426,2.426,0,0,1-1.182.2.9.9,0,0,1-.558-.19.39.39,0,0,1,.066-.661.687.687,0,0,1,.275-.073c.258-.012.516-.011.774-.011.073,0,.1-.021.1-.1,0-.158,0-.316,0-.474,0-.074-.023-.1-.1-.1-.188,0-.377-.005-.565-.022a.878.878,0,0,1-.852-.989.45.45,0,0,1,.293-.419.423.423,0,0,1,.456.065.45.45,0,0,1,.115.488,2.2,2.2,0,0,1-.127.289c.165.07.333.135.5.212a.146.146,0,0,0,.2-.049,1.008,1.008,0,0,0,.017-1.257,1.233,1.233,0,0,0-.864-.455,1.311,1.311,0,0,0-1.154.373,1.212,1.212,0,0,0,.37,1.9c.042.022.082.049.135.077-.081.037-.146.061-.206.1a.8.8,0,0,0-.463.658,1.125,1.125,0,0,0,.738,1.182,2.818,2.818,0,0,0,1.713.1,6.052,6.052,0,0,0,.607-.2v.939h.005v.039h.878v-4.42h3.2v.878c0,.024-.007.051-.011.089-.079-.049-.139-.1-.2-.132a1.517,1.517,0,0,0-.93-.155,1.35,1.35,0,0,0-.6.213,1.317,1.317,0,0,0-.592,1.161,1.458,1.458,0,0,0,1.5,1.527,1.2,1.2,0,0,0,.654-.156c.056-.034.109-.074.188-.128v1.124h.878v-2.479a.764.764,0,0,1,.1-.237.742.742,0,0,1,.791-.306.6.6,0,0,1,.559.623.667.667,0,0,1-.47.755,2.668,2.668,0,0,1-.42.042c-.033,0-.087.027-.091.049-.032.174-.053.35-.078.525-.011.071.023.089.089.1a1.965,1.965,0,0,0,.812-.04,1.289,1.289,0,0,0,.93-.788,1.541,1.541,0,0,0,.089-.8,1.3,1.3,0,0,0-.41-.816,1.553,1.553,0,0,0-1.853-.076.237.237,0,0,1-.049.027v-.994h4.333a.115.115,0,0,1,.056.037,1.511,1.511,0,0,1,.251,1.24.592.592,0,0,1-.591.459.52.52,0,0,1-.439-.281.244.244,0,0,0-.3-.111.4.4,0,0,0-.336.53,1.12,1.12,0,0,0,.13.282c.5.766,1.011,1.528,1.515,2.292.039.059.071.067.129.03.162-.1.328-.2.492-.3.061-.037.12-.077.188-.12l-1.238-1.624.22-.031a1.249,1.249,0,0,0,.822-.441,1.458,1.458,0,0,0,.285-1.273,4.786,4.786,0,0,0-.24-.687h1.2v.139c.008.624,0,1.248.031,1.871a1.078,1.078,0,0,0,.665.978,1.809,1.809,0,0,0,1.073.125,1.247,1.247,0,0,0,1.116-1.286c0-.556,0-1.26,0-1.826h.957v4.419h.878v-4.419h.665v-.687ZM987,664.19a.244.244,0,0,1-.072.089,1.011,1.011,0,0,1-.921.2A.5.5,0,0,1,985.6,664c-.018-.548-.005-1.1-.005-1.658H987Zm13.173.285a1.577,1.577,0,0,1-.068.354.677.677,0,0,1-.728.39.767.767,0,0,1,.163-1.524.984.984,0,0,1,.539.205.255.255,0,0,1,.094.12Zm9.383-.412a1.728,1.728,0,0,1-.07.418.376.376,0,0,1-.266.266c-.371.114-.787.033-.813-.519-.028-.582-.014-1.295-.012-1.889h1.163v.106c0,.54.008,1.08,0,1.619Z" transform="translate(-945.981 -659.592)" fill="#fff"/>
    </g>
  </g>
</svg>
